<svg xmlns="http://www.w3.org/2000/svg" xmlns:xlink="http://www.w3.org/1999/xlink" width="350" zoomAndPan="magnify" viewBox="0 0 262.5 30.000001" height="40" preserveAspectRatio="xMidYMid meet" version="1.0"><defs><g/></defs><g fill="#ffffff" fill-opacity="1"><g transform="translate(15.091797, 23.657877)"><g><path d="M 18.578125 0 L 18.546875 -11.6875 L 12.75 -2.015625 L 11.296875 -2.015625 L 5.5 -11.546875 L 5.5 0 L 2.375 0 L 2.375 -17.640625 L 5.0625 -17.640625 L 12.078125 -5.953125 L 18.953125 -17.640625 L 21.65625 -17.640625 L 21.671875 0 Z M 18.578125 0 "/></g></g></g><g fill="#ffffff" fill-opacity="1"><g transform="translate(39.159389, 23.657877)"><g><path d="M 13.8125 -4.078125 L 4.984375 -4.078125 L 3.25 0 L -0.125 0 L 7.8125 -17.640625 L 11.03125 -17.640625 L 19 0 L 15.578125 0 Z M 12.734375 -6.65625 L 9.40625 -14.359375 L 6.09375 -6.65625 Z M 12.734375 -6.65625 "/></g></g></g><g fill="#ffffff" fill-opacity="1"><g transform="translate(58.035442, 23.657877)"><g><path d="M 15.59375 -2.75 L 15.59375 0 L 2.375 0 L 2.375 -17.640625 L 15.25 -17.640625 L 15.25 -14.890625 L 5.640625 -14.890625 L 5.640625 -10.3125 L 14.171875 -10.3125 L 14.171875 -7.609375 L 5.640625 -7.609375 L 5.640625 -2.75 Z M 15.59375 -2.75 "/></g></g></g><g fill="#ffffff" fill-opacity="1"><g transform="translate(74.920557, 23.657877)"><g><path d="M 7.84375 0.25 C 6.476562 0.25 5.160156 0.0546875 3.890625 -0.328125 C 2.617188 -0.710938 1.613281 -1.222656 0.875 -1.859375 L 2.015625 -4.40625 C 2.734375 -3.832031 3.617188 -3.363281 4.671875 -3 C 5.722656 -2.644531 6.78125 -2.46875 7.84375 -2.46875 C 9.144531 -2.46875 10.117188 -2.675781 10.765625 -3.09375 C 11.421875 -3.519531 11.75 -4.078125 11.75 -4.765625 C 11.75 -5.265625 11.566406 -5.675781 11.203125 -6 C 10.835938 -6.332031 10.378906 -6.59375 9.828125 -6.78125 C 9.273438 -6.96875 8.519531 -7.175781 7.5625 -7.40625 C 6.21875 -7.726562 5.128906 -8.046875 4.296875 -8.359375 C 3.460938 -8.679688 2.75 -9.179688 2.15625 -9.859375 C 1.5625 -10.546875 1.265625 -11.46875 1.265625 -12.625 C 1.265625 -13.601562 1.523438 -14.488281 2.046875 -15.28125 C 2.578125 -16.082031 3.375 -16.71875 4.4375 -17.1875 C 5.507812 -17.65625 6.820312 -17.890625 8.375 -17.890625 C 9.445312 -17.890625 10.503906 -17.753906 11.546875 -17.484375 C 12.585938 -17.222656 13.484375 -16.835938 14.234375 -16.328125 L 13.203125 -13.78125 C 12.429688 -14.238281 11.625 -14.582031 10.78125 -14.8125 C 9.945312 -15.050781 9.132812 -15.171875 8.34375 -15.171875 C 7.050781 -15.171875 6.085938 -14.953125 5.453125 -14.515625 C 4.828125 -14.078125 4.515625 -13.5 4.515625 -12.78125 C 4.515625 -12.269531 4.691406 -11.851562 5.046875 -11.53125 C 5.410156 -11.21875 5.867188 -10.96875 6.421875 -10.78125 C 6.984375 -10.601562 7.738281 -10.394531 8.6875 -10.15625 C 10 -9.851562 11.078125 -9.535156 11.921875 -9.203125 C 12.765625 -8.878906 13.484375 -8.378906 14.078125 -7.703125 C 14.671875 -7.035156 14.96875 -6.128906 14.96875 -4.984375 C 14.96875 -4.015625 14.703125 -3.132812 14.171875 -2.34375 C 13.648438 -1.550781 12.847656 -0.921875 11.765625 -0.453125 C 10.691406 0.015625 9.382812 0.25 7.84375 0.25 Z M 7.84375 0.25 "/></g></g></g><g fill="#ffffff" fill-opacity="1"><g transform="translate(90.7724, 23.657877)"><g><path d="M 5.953125 -14.875 L 0.09375 -14.875 L 0.09375 -17.640625 L 15.078125 -17.640625 L 15.078125 -14.875 L 9.21875 -14.875 L 9.21875 0 L 5.953125 0 Z M 5.953125 -14.875 "/></g></g></g><g fill="#ffffff" fill-opacity="1"><g transform="translate(105.943802, 23.657877)"><g><path d="M 13.90625 0 L 10.3125 -5.171875 C 10.15625 -5.148438 9.925781 -5.140625 9.625 -5.140625 L 5.640625 -5.140625 L 5.640625 0 L 2.375 0 L 2.375 -17.640625 L 9.625 -17.640625 C 11.15625 -17.640625 12.488281 -17.382812 13.625 -16.875 C 14.757812 -16.375 15.628906 -15.65625 16.234375 -14.71875 C 16.835938 -13.78125 17.140625 -12.660156 17.140625 -11.359375 C 17.140625 -10.035156 16.816406 -8.894531 16.171875 -7.9375 C 15.523438 -6.976562 14.597656 -6.265625 13.390625 -5.796875 L 17.4375 0 Z M 13.84375 -11.359375 C 13.84375 -12.492188 13.472656 -13.363281 12.734375 -13.96875 C 11.992188 -14.570312 10.90625 -14.875 9.46875 -14.875 L 5.640625 -14.875 L 5.640625 -7.84375 L 9.46875 -7.84375 C 10.90625 -7.84375 11.992188 -8.144531 12.734375 -8.75 C 13.472656 -9.363281 13.84375 -10.234375 13.84375 -11.359375 Z M 13.84375 -11.359375 "/></g></g></g><g fill="#ffffff" fill-opacity="1"><g transform="translate(124.366216, 23.657877)"><g><path d="M 10.609375 0.25 C 8.804688 0.25 7.179688 -0.140625 5.734375 -0.921875 C 4.296875 -1.703125 3.164062 -2.785156 2.34375 -4.171875 C 1.519531 -5.554688 1.109375 -7.109375 1.109375 -8.828125 C 1.109375 -10.535156 1.519531 -12.082031 2.34375 -13.46875 C 3.164062 -14.851562 4.296875 -15.9375 5.734375 -16.71875 C 7.179688 -17.5 8.804688 -17.890625 10.609375 -17.890625 C 12.410156 -17.890625 14.03125 -17.5 15.46875 -16.71875 C 16.914062 -15.9375 18.050781 -14.859375 18.875 -13.484375 C 19.695312 -12.109375 20.109375 -10.554688 20.109375 -8.828125 C 20.109375 -7.085938 19.695312 -5.53125 18.875 -4.15625 C 18.050781 -2.78125 16.914062 -1.703125 15.46875 -0.921875 C 14.03125 -0.140625 12.410156 0.25 10.609375 0.25 Z M 10.609375 -2.625 C 11.785156 -2.625 12.84375 -2.882812 13.78125 -3.40625 C 14.726562 -3.9375 15.46875 -4.675781 16 -5.625 C 16.539062 -6.582031 16.8125 -7.648438 16.8125 -8.828125 C 16.8125 -9.992188 16.539062 -11.050781 16 -12 C 15.46875 -12.957031 14.726562 -13.695312 13.78125 -14.21875 C 12.84375 -14.75 11.785156 -15.015625 10.609375 -15.015625 C 9.429688 -15.015625 8.375 -14.75 7.4375 -14.21875 C 6.5 -13.695312 5.757812 -12.957031 5.21875 -12 C 4.675781 -11.050781 4.40625 -9.992188 4.40625 -8.828125 C 4.40625 -7.648438 4.675781 -6.582031 5.21875 -5.625 C 5.757812 -4.675781 6.5 -3.9375 7.4375 -3.40625 C 8.375 -2.882812 9.429688 -2.625 10.609375 -2.625 Z M 10.609375 -2.625 "/></g></g></g><g fill="#ffffff" fill-opacity="1"><g transform="translate(145.586015, 23.657877)"><g/></g></g><g fill="#f78c2e" fill-opacity="1"><g transform="translate(152.530497, 23.657877)"><g><path d="M 2.375 -17.640625 L 10.078125 -17.640625 C 11.960938 -17.640625 13.632812 -17.273438 15.09375 -16.546875 C 16.5625 -15.816406 17.695312 -14.78125 18.5 -13.4375 C 19.300781 -12.101562 19.703125 -10.566406 19.703125 -8.828125 C 19.703125 -7.078125 19.300781 -5.53125 18.5 -4.1875 C 17.695312 -2.851562 16.5625 -1.820312 15.09375 -1.09375 C 13.632812 -0.363281 11.960938 0 10.078125 0 L 2.375 0 Z M 9.9375 -2.765625 C 11.226562 -2.765625 12.363281 -3.015625 13.34375 -3.515625 C 14.320312 -4.015625 15.078125 -4.71875 15.609375 -5.625 C 16.140625 -6.539062 16.40625 -7.609375 16.40625 -8.828125 C 16.40625 -10.035156 16.140625 -11.097656 15.609375 -12.015625 C 15.078125 -12.929688 14.320312 -13.632812 13.34375 -14.125 C 12.363281 -14.625 11.226562 -14.875 9.9375 -14.875 L 5.640625 -14.875 L 5.640625 -2.765625 Z M 9.9375 -2.765625 "/></g></g></g><g fill="#f78c2e" fill-opacity="1"><g transform="translate(173.347077, 23.657877)"><g><path d="M 15.59375 -2.75 L 15.59375 0 L 2.375 0 L 2.375 -17.640625 L 15.25 -17.640625 L 15.25 -14.890625 L 5.640625 -14.890625 L 5.640625 -10.3125 L 14.171875 -10.3125 L 14.171875 -7.609375 L 5.640625 -7.609375 L 5.640625 -2.75 Z M 15.59375 -2.75 "/></g></g></g><g fill="#f78c2e" fill-opacity="1"><g transform="translate(190.232193, 23.657877)"><g><path d="M 5.953125 -14.875 L 0.09375 -14.875 L 0.09375 -17.640625 L 15.078125 -17.640625 L 15.078125 -14.875 L 9.21875 -14.875 L 9.21875 0 L 5.953125 0 Z M 5.953125 -14.875 "/></g></g></g><g fill="#f78c2e" fill-opacity="1"><g transform="translate(205.403594, 23.657877)"><g><path d="M 13.8125 -4.078125 L 4.984375 -4.078125 L 3.25 0 L -0.125 0 L 7.8125 -17.640625 L 11.03125 -17.640625 L 19 0 L 15.578125 0 Z M 12.734375 -6.65625 L 9.40625 -14.359375 L 6.09375 -6.65625 Z M 12.734375 -6.65625 "/></g></g></g><g fill="#f78c2e" fill-opacity="1"><g transform="translate(224.279647, 23.657877)"><g><path d="M 2.375 -17.640625 L 5.640625 -17.640625 L 5.640625 0 L 2.375 0 Z M 2.375 -17.640625 "/></g></g></g><g fill="#f78c2e" fill-opacity="1"><g transform="translate(232.318981, 23.657877)"><g><path d="M 2.375 -17.640625 L 5.640625 -17.640625 L 5.640625 -2.765625 L 14.875 -2.765625 L 14.875 0 L 2.375 0 Z M 2.375 -17.640625 "/></g></g></g></svg>