<svg xmlns="http://www.w3.org/2000/svg" xmlns:xlink="http://www.w3.org/1999/xlink" width="40" zoomAndPan="magnify" viewBox="0 0 375 374.999991" height="40" preserveAspectRatio="xMidYMid meet" version="1.0"><defs><clipPath id="fc1f4aa5ab"><path d="M 43 48 L 324 48 L 324 337.5 L 43 337.5 Z M 43 48 " clip-rule="nonzero"/></clipPath></defs><g clip-path="url(#fc1f4aa5ab)"><path fill="#f78c2e" d="M 310.382812 305.363281 L 310.449219 305.363281 Z M 90.988281 61.992188 C 88.242188 61.992188 85.648438 63.234375 82.84375 65.691406 C 82.523438 65.996094 78.542969 69.773438 75.894531 72.285156 L 73.484375 74.578125 C 59.996094 87.1875 53.875 109.898438 57.902344 132.453125 C 59.203125 139.746094 61.300781 147.296875 64.132812 154.902344 C 78.425781 193.292969 105.570312 226.675781 125.824219 247.921875 C 145.980469 269.316406 177.871094 298.207031 215.433594 314.53125 C 222.875 317.765625 230.3125 320.261719 237.523438 321.953125 C 259.835938 327.179688 282.839844 322.285156 296.152344 309.492188 L 299.152344 306.648438 C 301.6875 304.242188 305.035156 301.070312 305.570312 300.558594 C 313.785156 292.113281 309.632812 285.046875 293.058594 268.175781 L 288.894531 263.90625 C 278.34375 252.964844 260.679688 234.648438 245.753906 236.425781 C 241.722656 236.898438 237.484375 239.851562 233 242.988281 C 228.527344 246.113281 223.902344 249.34375 218.332031 251.101562 C 203.410156 255.828125 188.269531 252.726562 175.695312 242.363281 C 168.207031 236.1875 160.574219 228.964844 153.636719 221.46875 C 146.648438 214.269531 139.839844 206.269531 134.066406 198.445312 C 124.390625 185.339844 122.105469 170.050781 127.621094 155.402344 C 129.683594 149.9375 133.15625 145.488281 136.519531 141.183594 C 139.882812 136.871094 143.058594 132.800781 143.753906 128.804688 C 146.3125 113.980469 128.976562 95.371094 118.613281 84.257812 L 114.5625 79.863281 C 103.609375 67.878906 96.949219 61.992188 90.988281 61.992188 Z M 255.507812 337.597656 C 248.027344 337.597656 240.835938 336.691406 234.421875 335.191406 C 226.414062 333.316406 218.207031 330.554688 210.015625 326.996094 C 170.339844 309.753906 136.964844 279.570312 115.957031 257.277344 C 94.847656 235.136719 66.484375 200.199219 51.394531 159.648438 C 48.277344 151.28125 45.960938 142.929688 44.523438 134.832031 C 40.683594 113.378906 43.84375 83.664062 64.199219 64.640625 L 66.535156 62.425781 C 69.371094 59.734375 73.691406 55.636719 73.867188 55.488281 C 94.289062 37.550781 112.53125 57.488281 124.605469 70.691406 L 128.5625 74.992188 C 140.640625 87.953125 160.859375 109.644531 157.148438 131.121094 C 155.875 138.480469 151.285156 144.359375 147.234375 149.550781 C 144.378906 153.210938 141.675781 156.667969 140.351562 160.191406 C 136.453125 170.53125 138.0625 180.964844 145.007812 190.375 C 150.425781 197.710938 156.820312 205.230469 163.507812 212.121094 C 170.144531 219.289062 177.3125 226.078125 184.34375 231.875 C 193.367188 239.304688 203.691406 241.472656 214.226562 238.148438 C 217.820312 237.007812 221.417969 234.492188 225.226562 231.832031 C 230.621094 228.066406 236.738281 223.796875 244.15625 222.917969 C 265.78125 220.308594 286.386719 241.710938 298.679688 254.472656 L 302.75 258.644531 C 315.292969 271.402344 334.234375 290.683594 315.242188 310.121094 L 315.242188 310.117188 C 314.960938 310.390625 311.273438 313.898438 308.492188 316.523438 L 305.578125 319.285156 C 291.558594 332.765625 272.785156 337.597656 255.507812 337.597656 " fill-opacity="1" fill-rule="nonzero"/></g><path fill="#f78c2e" d="M 267.035156 196.023438 C 263.464844 196.023438 260.472656 193.238281 260.257812 189.625 C 259.171875 171.328125 251.640625 153.921875 239.046875 140.636719 C 226.445312 127.34375 209.46875 118.886719 191.253906 116.824219 C 187.523438 116.402344 184.839844 113.035156 185.265625 109.304688 C 185.6875 105.574219 189.066406 102.898438 192.777344 103.320312 C 214.171875 105.742188 234.113281 115.671875 248.90625 131.28125 C 263.710938 146.890625 272.558594 167.328125 273.832031 188.824219 C 274.050781 192.574219 271.191406 195.792969 267.445312 196.011719 C 267.308594 196.023438 267.171875 196.023438 267.035156 196.023438 " fill-opacity="1" fill-rule="nonzero"/><path fill="#f78c2e" d="M 317.890625 203.714844 C 314.320312 203.714844 311.328125 200.929688 311.113281 197.316406 C 309.148438 164.210938 295.523438 132.738281 272.738281 108.699219 C 249.953125 84.65625 219.25 69.363281 186.292969 65.636719 C 182.5625 65.214844 179.878906 61.847656 180.304688 58.117188 C 180.722656 54.386719 184.09375 51.691406 187.820312 52.125 C 223.960938 56.210938 257.621094 72.980469 282.601562 99.34375 C 307.589844 125.703125 322.535156 160.214844 324.683594 196.515625 C 324.90625 200.265625 322.046875 203.484375 318.300781 203.703125 C 318.164062 203.710938 318.027344 203.714844 317.890625 203.714844 " fill-opacity="1" fill-rule="nonzero"/></svg>